The Pandora Machine (2004) [DTV]
Starring: Daryl Boling, Margaret Dodge, Doris Hick
Director: Andrew Bellware
IMdB code: http://www.imdb.com/title/tt0415198/
Summary: In a dystopian future in which private, for-profit police forces keep all crime at bay using technology that can detect any human, a series of murders takes place in which the killer cannot be seen; therefore, it must not be human.  But what is "human?"  A student-made indie effort which evokes echoes
of Philip K. Dick.  Brought to you by Colonel Boris.

General
Format                           : MPEG-4
Format profile                   : Base Media
Codec ID                         : isom
File size                        : 832 MiB
Duration                         : 1h 23mn
Overall bit rate                 : 1 392 Kbps
Movie name                       : The Pandora Machine
Writing application              : Lavf53.24.0

Video
ID                               : 1
Format                           : MPEG-4 Visual
Format profile                   : Advanced Simple@L5
Format settings, BVOP            : Yes
Format settings, QPel            : No
Format settings, GMC             : No warppoints
Format settings, Matrix          : Default (H.263)
Codec ID                         : 20
Duration                         : 1h 23mn
Bit rate mode                    : Variable
Bit rate                         : 1 258 Kbps
Maximum bit rate                 : 9 500 Kbps
Width                            : 720 pixels
Height                           : 480 pixels
Display aspect ratio             : 3:2
Frame rate mode                  : Constant
Frame rate                       : 29.970 fps
Standard                         : NTSC
Color space                      : YUV
Chroma subsampling               : 4:2:0
Bit depth                        : 8 bits
Scan type                        : Progressive
Compression mode                 : Lossy
Bits/(Pixel*Frame)               : 0.121
Stream size                      : 752 MiB (90%)
Writing library                  : XviD 64

Audio
ID                               : 2
Format                           : AAC
Format/Info                      : Advanced Audio Codec
Format profile                   : LC
Codec ID                         : 40
Duration                         : 1h 23mn
Bit rate mode                    : Variable
Bit rate                         : 126 Kbps
Maximum bit rate                 : 128 Kbps
Channel(s)                       : 2 channels
Channel positions                : Front: L R
Sampling rate                    : 44.1 KHz
Compression mode                 : Lossy
Stream size                      : 75.1 MiB (9%)